####
#
# OBJ File Generated by Meshlab
#
####
# Object kettle_5_handle.obj
#
# Vertices: 49
# Faces: 72
#
####
mtllib ./kettle_5_handle.obj.mtl

vn -0.2585754 0.8027608 -0.5373210
v -0.0000047 -0.0527660 0.2492086
vn 0.2369127 0.7952250 -0.5581126
v -0.0000047 -0.0527660 0.2492086
vn 0.2770980 -0.9607251 -0.0149702
v -0.0000047 0.0844061 0.2004363
vn -0.2783705 -0.9603800 -0.0134216
v -0.0000047 0.0844061 0.2004363
vn 0.8665856 -0.4989651 -0.0079601
v 0.0243815 0.0915187 0.1972751
vn 0.8168215 -0.5737827 -0.0598008
v 0.0243815 0.0902393 0.2774754
vn -0.2825978 -0.9562793 -0.0752881
v -0.0000047 0.0833900 0.2731428
vn 0.2768137 -0.9574262 -0.0819095
v -0.0000047 0.0833900 0.2731428
vn 0.8879028 -0.3799222 -0.2593990
v 0.0243815 0.0812823 0.3270671
vn 0.3064309 -0.8380609 -0.4513912
v -0.0000047 0.0762774 0.3187546
vn -0.3293107 -0.8356935 -0.4395120
v -0.0000047 0.0762774 0.3187546
vn 0.9001982 -0.0778290 -0.4284692
v 0.0243815 0.0569717 0.3440439
vn 0.3509715 -0.2273729 -0.9083615
v -0.0000047 0.0569717 0.3345601
vn -0.3745790 -0.2044846 -0.9043654
v -0.0000047 0.0569717 0.3345601
vn 0.7008212 0.7131969 0.0141361
v 0.0243815 0.1047279 0.1914045
vn 0.7832560 0.6177369 0.0700801
v 0.0243815 0.1029591 0.2855204
vn 0.7486814 0.5463383 0.3754872
v 0.0243815 0.0905783 0.3425051
vn 0.7622468 0.0900604 0.6409907
v 0.0243815 0.0569717 0.3616556
vn 0.0003177 0.9998099 0.0194998
v -0.0000047 0.1118405 0.1882433
vn 0.0027861 0.9915471 0.1297173
v -0.0000047 0.1098083 0.2898522
vn 0.0067516 0.7763370 0.6302819
v -0.0000047 0.0955831 0.3508176
vn 0.0044681 0.1062473 0.9943298
v -0.0000047 0.0569717 0.3711393
vn -0.7012020 0.7128369 0.0133970
v -0.0243908 0.1047279 0.1914045
vn -0.7844307 0.6165881 0.0669892
v -0.0243908 0.1029591 0.2855204
vn -0.7524436 0.5443462 0.3708314
v -0.0243908 0.0905783 0.3425051
vn -0.7655694 0.0822347 0.6380760
v -0.0243908 0.0569717 0.3616556
vn -0.8663939 -0.4993093 -0.0071987
v -0.0243908 0.0915187 0.1972751
vn -0.8142333 -0.5778784 -0.0555051
v -0.0243908 0.0902393 0.2774754
vn -0.8814812 -0.3929351 -0.2619027
v -0.0243908 0.0812823 0.3270671
vn -0.8961375 -0.0734228 -0.4376605
v -0.0243908 0.0569717 0.3440439
vn 0.8568399 0.2230761 -0.4648252
v 0.0243815 0.0175954 0.3339415
vn 0.3433633 0.3918756 -0.8535427
v -0.0000047 0.0224247 0.3259794
vn -0.3561378 0.3784124 -0.8543828
v -0.0000047 0.0224247 0.3259794
vn 0.8404952 0.3919186 -0.3741227
v 0.0243815 -0.0252437 0.3020623
vn 0.2867639 0.6711199 -0.6836407
v -0.0000047 -0.0182189 0.2984329
vn -0.3074088 0.6714639 -0.6742671
v -0.0000047 -0.0182189 0.2984329
vn 0.9162346 0.3297392 -0.2275661
v 0.0243815 -0.0622497 0.2460473
vn 0.7847382 -0.2924110 0.5465179
v 0.0243815 0.0086262 0.3487268
vn 0.7770518 -0.4789473 0.4084116
v 0.0243815 -0.0382895 0.3088027
vn 0.5487678 -0.7150142 0.4331382
v 0.0243815 -0.0798614 0.2401768
vn 0.0044219 -0.4759023 0.8794870
v -0.0000047 0.0037961 0.3566881
vn 0.0061103 -0.7743359 0.6327453
v -0.0000047 -0.0453144 0.3124321
vn 0.0036106 -0.8603796 0.5096410
v -0.0000047 -0.0893452 0.2370155
vn -0.7873244 -0.2854850 0.5464602
v -0.0243908 0.0086262 0.3487268
vn -0.7810519 -0.4773188 0.4026473
v -0.0243908 -0.0382895 0.3088027
vn -0.5575120 -0.7158049 0.4204804
v -0.0243908 -0.0798614 0.2401768
vn -0.8529299 0.2199126 -0.4734438
v -0.0243908 0.0175954 0.3339415
vn -0.8347598 0.3994562 -0.3789603
v -0.0243908 -0.0252437 0.3020623
vn -0.9150016 0.3366236 -0.2223885
v -0.0243908 -0.0622497 0.2460473
# 49 vertices, 0 vertices normals


usemtl material_0
vt 1.0000000 1.0000000
vt 0.8333000 1.0000000
vt 0.8333000 0.8333000
f 3/1/3 5/2/5 6/3/6
vt 1.0000000 0.8333000
f 6/3/6 8/4/8 3/1/3
vt 0.8333000 0.6667000
f 8/4/8 6/3/6 9/5/9
vt 1.0000000 0.6667000
f 9/5/9 10/6/10 8/4/8
vt 0.8333000 0.5000000
f 10/6/10 9/5/9 12/7/12
vt 1.0000000 0.5000000
f 12/7/12 13/8/13 10/6/10
vt 0.6667000 1.0000000
vt 0.6667000 0.8333000
f 5/2/5 15/9/15 16/10/16
f 16/10/16 6/3/6 5/2/5
vt 0.6667000 0.6667000
f 6/3/6 16/10/16 17/11/17
f 17/11/17 9/5/9 6/3/6
vt 0.6667000 0.5000000
f 9/5/9 17/11/17 18/12/18
f 18/12/18 12/7/12 9/5/9
vt 0.5000000 1.0000000
vt 0.5000000 0.8333000
f 15/9/15 19/13/19 20/14/20
f 20/14/20 16/10/16 15/9/15
vt 0.5000000 0.6667000
f 16/10/16 20/14/20 21/15/21
f 21/15/21 17/11/17 16/10/16
vt 0.5000000 0.5000000
f 17/11/17 21/15/21 22/16/22
f 22/16/22 18/12/18 17/11/17
vt 0.3333000 1.0000000
vt 0.3333000 0.8333000
f 19/13/19 23/17/23 24/18/24
f 24/18/24 20/14/20 19/13/19
vt 0.3333000 0.6667000
f 20/14/20 24/18/24 25/19/25
f 25/19/25 21/15/21 20/14/20
vt 0.3333000 0.5000000
f 21/15/21 25/19/25 26/20/26
f 26/20/26 22/16/22 21/15/21
vt 0.1667000 1.0000000
vt 0.1667000 0.8333000
f 23/17/23 27/21/27 28/22/28
f 28/22/28 24/18/24 23/17/23
vt 0.1667000 0.6667000
f 24/18/24 28/22/28 29/23/29
f 29/23/29 25/19/25 24/18/24
vt 0.1667000 0.5000000
f 25/19/25 29/23/29 30/24/30
f 30/24/30 26/20/26 25/19/25
vt -0.0000000 1.0000000
vt -0.0000000 0.8333000
f 27/21/27 4/25/4 7/26/7
f 7/26/7 28/22/28 27/21/27
vt -0.0000000 0.6667000
f 28/22/28 7/26/7 11/27/11
f 11/27/11 29/23/29 28/22/28
vt -0.0000000 0.5000000
f 29/23/29 11/27/11 14/28/14
f 14/28/14 30/24/30 29/23/29
vt 0.8333000 0.3333000
f 13/8/13 12/7/12 31/29/31
vt 1.0000000 0.3333000
f 31/29/31 32/30/32 13/8/13
vt 0.8333000 0.1667000
f 32/30/32 31/29/31 34/31/34
vt 1.0000000 0.1667000
f 34/31/34 35/32/35 32/30/32
vt 0.8333000 -0.0000000
f 35/32/35 34/31/34 37/33/37
vt 1.0000000 -0.0000000
f 37/33/37 2/34/2 35/32/35
vt 0.6667000 0.3333000
f 12/7/12 18/12/18 38/35/38
f 38/35/38 31/29/31 12/7/12
vt 0.6667000 0.1667000
f 31/29/31 38/35/38 39/36/39
f 39/36/39 34/31/34 31/29/31
vt 0.6667000 -0.0000000
f 34/31/34 39/36/39 40/37/40
f 40/37/40 37/33/37 34/31/34
vt 0.5000000 0.3333000
f 18/12/18 22/16/22 41/38/41
f 41/38/41 38/35/38 18/12/18
vt 0.5000000 0.1667000
f 38/35/38 41/38/41 42/39/42
f 42/39/42 39/36/39 38/35/38
vt 0.5000000 -0.0000000
f 39/36/39 42/39/42 43/40/43
f 43/40/43 40/37/40 39/36/39
vt 0.3333000 0.3333000
f 22/16/22 26/20/26 44/41/44
f 44/41/44 41/38/41 22/16/22
vt 0.3333000 0.1667000
f 41/38/41 44/41/44 45/42/45
f 45/42/45 42/39/42 41/38/41
vt 0.3333000 -0.0000000
f 42/39/42 45/42/45 46/43/46
f 46/43/46 43/40/43 42/39/42
vt 0.1667000 0.3333000
f 26/20/26 30/24/30 47/44/47
f 47/44/47 44/41/44 26/20/26
vt 0.1667000 0.1667000
f 44/41/44 47/44/47 48/45/48
f 48/45/48 45/42/45 44/41/44
vt 0.1667000 -0.0000000
f 45/42/45 48/45/48 49/46/49
f 49/46/49 46/43/46 45/42/45
vt -0.0000000 0.3333000
f 30/24/30 14/28/14 33/47/33
f 33/47/33 47/44/47 30/24/30
vt -0.0000000 0.1667000
f 47/44/47 33/47/33 36/48/36
f 36/48/36 48/45/48 47/44/47
vt -0.0000000 -0.0000000
f 48/45/48 36/48/36 1/49/1
f 1/49/1 49/46/49 48/45/48
# 72 faces, 49 coords texture

# End of File
