####
#
# OBJ File Generated by Meshlab
#
####
# Object kettle_1_handle.obj
#
# Vertices: 163
# Faces: 274
#
####
mtllib ./kettle_1_handle.obj.mtl

vn 0.9566161 -0.2594893 0.1324802
v 0.0438220 0.0581234 0.2093165
vn -0.9442056 -0.2624201 0.1990263
v -0.0307808 0.0581235 0.2116441
vn 0.3874219 0.8923972 -0.2313690
v 0.0311439 0.0893117 0.1914409
vn -0.3963254 0.8922479 -0.2163791
v -0.0192415 0.0893117 0.1930130
vn 0.9613227 0.2654624 -0.0734062
v 0.0433592 0.0763157 0.1981194
vn -0.9661993 0.2570148 -0.0200587
v -0.0310167 0.0763157 0.2004402
vn 0.5659457 -0.7203671 0.4009696
v 0.0322002 0.0449209 0.2174595
vn -0.5466789 -0.7095831 0.4445606
v -0.0186740 0.0449209 0.2190468
vn -0.2327868 -0.8273233 0.5112206
v -0.0074021 0.0425959 0.2204169
vn 0.0162312 -0.8539515 0.5200994
v -0.0074021 0.0425959 0.2204169
vn 0.1412918 -0.8500636 0.5073742
v 0.0210358 0.0425959 0.2195294
vn 0.9479848 -0.3142130 0.0509428
v 0.0447565 0.0711139 0.2440392
vn -0.9392295 -0.3253284 0.1095880
v -0.0295488 0.0711139 0.2463576
vn 0.3859387 0.9140723 -0.1245917
v 0.0325893 0.1015317 0.2409941
vn -0.3873709 0.9165838 -0.0990861
v -0.0175951 0.1015317 0.2425600
vn 0.9148492 0.3950996 -0.0833504
v 0.0445658 0.0888337 0.2415502
vn -0.9208388 0.3893101 -0.0222164
v -0.0295134 0.0888337 0.2438617
vn 0.5160204 -0.8257903 0.2275815
v 0.0329860 0.0582198 0.2458978
vn -0.5109065 -0.8222488 0.2507620
v -0.0176852 0.0582198 0.2474787
vn -0.2108714 -0.9348270 0.2857126
v -0.0064937 0.0558149 0.2477116
vn 0.0090394 -0.9570817 0.2896772
v -0.0064937 0.0558149 0.2477116
vn 0.1175518 -0.9516285 0.2838747
v 0.0218308 0.0558149 0.2468277
vn 0.9421525 -0.3320329 -0.0458572
v 0.0453940 0.0731990 0.2709234
vn -0.9428923 -0.3330573 0.0051922
v -0.0285088 0.0731990 0.2732294
vn 0.3794895 0.9141921 0.1422692
v 0.0335641 0.1014388 0.2765977
vn -0.3685145 0.9140563 0.1694053
v -0.0163484 0.1014388 0.2781549
vn 0.9114221 0.4095982 0.0392311
v 0.0453631 0.0896310 0.2735413
vn -0.9077384 0.4072342 0.1008533
v -0.0283148 0.0896310 0.2758402
vn 0.4961440 -0.8663769 -0.0568532
v 0.0335719 0.0612184 0.2690815
vn -0.5016262 -0.8642390 -0.0382383
v -0.0168248 0.0612184 0.2706539
vn -0.2067940 -0.9770525 -0.0510367
v -0.0057158 0.0589093 0.2701855
vn -0.0017071 -0.9985005 -0.0547171
v -0.0057158 0.0589093 0.2701855
vn 0.1020830 -0.9930943 -0.0578181
v 0.0224553 0.0589093 0.2693066
vn 0.9345158 -0.3120716 -0.1711482
v 0.0456169 0.0669905 0.2921554
vn -0.9418504 -0.3187366 -0.1064191
v -0.0274078 0.0669905 0.2944337
vn 0.3832346 0.8148846 0.4348498
v 0.0341782 0.0913958 0.3057886
vn -0.3540888 0.8172461 0.4546755
v -0.0151414 0.0913958 0.3073276
vn 0.9137284 0.3671766 0.1740168
v 0.0457333 0.0811720 0.2994505
vn -0.9015275 0.3692104 0.2256810
v -0.0270691 0.0811720 0.3017221
vn 0.4720738 -0.8034702 -0.3627424
v 0.0338291 0.0566277 0.2869285
vn -0.4942395 -0.8081068 -0.3204541
v -0.0159688 0.0566277 0.2884823
vn -0.2089955 -0.9038317 -0.3733753
v -0.0050126 0.0545612 0.2873520
vn -0.0120612 -0.9221784 -0.3865768
v -0.0050126 0.0545612 0.2873520
vn 0.0868008 -0.9168257 -0.3897387
v 0.0228237 0.0545612 0.2864835
vn 0.9435998 -0.1821257 -0.2764955
v 0.0467390 0.0459840 0.3226293
vn -0.9559230 -0.1895617 -0.2242267
v -0.0266280 0.0459840 0.3249185
vn 0.3876152 0.5126536 0.7661206
v 0.0356318 0.0576024 0.3486733
vn -0.3339552 0.5149022 0.7895250
v -0.0139188 0.0576024 0.3502194
vn 0.9049035 0.2667201 0.3316776
v 0.0470830 0.0526433 0.3372324
vn -0.8850170 0.2642390 0.3833049
v -0.0260608 0.0526433 0.3395147
vn 0.4647480 -0.5774297 -0.6712558
v 0.0347322 0.0410290 0.3121285
vn -0.5151368 -0.5718570 -0.6384464
v -0.0152991 0.0410290 0.3136896
vn -0.0234734 -0.6583469 -0.7523486
v -0.0043258 0.0398755 0.3114552
vn -0.2189218 -0.6485729 -0.7289901
v -0.0043258 0.0398755 0.3114552
vn 0.0745734 -0.6565575 -0.7505805
v 0.0236409 0.0398755 0.3105826
vn 0.9187579 -0.0801201 -0.3866067
v 0.0472427 0.0093723 0.3362435
vn -0.9396282 -0.0749153 -0.3338961
v -0.0262818 0.0093725 0.3385376
vn 0.3850512 0.1538914 0.9099742
v 0.0360883 0.0109652 0.3615957
vn -0.3250399 0.1493947 0.9338257
v -0.0135686 0.0109652 0.3631451
vn 0.9145196 0.0794714 0.3966589
v 0.0475728 0.0101783 0.3504100
vn -0.8895994 0.0723513 0.4509748
v -0.0257281 0.0101783 0.3526971
vn 0.4223022 -0.2172565 -0.8800344
v 0.0352196 0.0086695 0.3260254
vn -0.4814192 -0.2055122 -0.8520566
v -0.0149192 0.0086694 0.3275897
vn -0.2062341 -0.2341942 -0.9500635
v -0.0039235 0.0083257 0.3253168
vn -0.0302706 -0.2401778 -0.9702569
v -0.0039235 0.0083257 0.3253168
vn 0.0580511 -0.2398643 -0.9690692
v 0.0241035 0.0083257 0.3244424
vn 0.9086393 -0.0033577 -0.4175686
v 0.0472181 -0.0227702 0.3383467
vn -0.9329908 -0.0040602 -0.3598775
v -0.0261262 -0.0227702 0.3406351
vn 0.3853100 -0.0058946 0.9227684
v 0.0360852 -0.0233438 0.3634479
vn -0.3272660 -0.0052167 0.9449179
v -0.0134502 -0.0233438 0.3649935
vn 0.9199557 -0.0049087 0.3919919
v 0.0475439 -0.0231543 0.3523612
vn -0.8935793 -0.0040480 0.4488872
v -0.0255775 -0.0231543 0.3546427
vn 0.4145011 -0.0034790 -0.9100422
v 0.0352270 -0.0225551 0.3282315
vn -0.4699351 -0.0047321 -0.8826883
v -0.0147891 -0.0225551 0.3297921
vn -0.0311817 -0.0024622 -0.9995107
v -0.0038202 -0.0227304 0.3275218
vn -0.2032287 -0.0025628 -0.9791279
v -0.0038202 -0.0227304 0.3275218
vn 0.0556376 -0.0021294 -0.9984488
v 0.0241379 -0.0227304 0.3266496
vn 0.9163481 0.0754809 -0.3932032
v 0.0470105 -0.0525523 0.3364319
vn -0.9390594 0.0752932 -0.3354077
v -0.0260383 -0.0525523 0.3387111
vn 0.3814768 -0.1750526 0.9076520
v 0.0359162 -0.0578957 0.3612330
vn -0.3241287 -0.1753612 0.9296177
v -0.0134196 -0.0578957 0.3627723
vn 0.9144706 -0.0778166 0.3970997
v 0.0473314 -0.0556820 0.3502817
vn -0.8880111 -0.0784567 0.4530794
v -0.0254952 -0.0556820 0.3525540
vn 0.4227149 0.1736311 -0.8894742
v 0.0350701 -0.0503155 0.3264368
vn -0.4770153 0.1738566 -0.8615279
v -0.0147443 -0.0503155 0.3279911
vn -0.0305793 0.1964172 -0.9800435
v -0.0038205 -0.0501145 0.3257064
vn -0.2047981 0.1940435 -0.9593773
v -0.0038205 -0.0501145 0.3257064
vn 0.0571188 0.1960317 -0.9789326
v 0.0240250 -0.0501145 0.3248375
vn 0.9175873 0.1613390 -0.3633226
v 0.0471123 -0.0861449 0.3252237
vn -0.9384224 0.1619370 -0.3051882
v -0.0268387 -0.0861449 0.3275312
vn 0.3816696 -0.3966491 0.8348640
v 0.0358244 -0.0970994 0.3485201
vn -0.3289864 -0.3965034 0.8570607
v -0.0141206 -0.0970994 0.3500785
vn 0.9146228 -0.1821686 0.3609428
v 0.0474051 -0.0925115 0.3382194
vn -0.8902541 -0.1816892 0.4176562
v -0.0263208 -0.0925115 0.3405198
vn 0.4284107 0.3865586 -0.8167232
v 0.0350482 -0.0815277 0.3158662
vn -0.4776880 0.3863823 -0.7890013
v -0.0153815 -0.0815277 0.3174398
vn -0.0280530 0.4368028 -0.8991198
v -0.0043199 -0.0808692 0.3152182
vn -0.2036078 0.4299376 -0.8796008
v -0.0043199 -0.0808692 0.3152182
vn 0.0603152 0.4354928 -0.8981693
v 0.0238695 -0.0808692 0.3143387
vn 0.9211009 0.2350560 -0.3103578
v 0.0464370 -0.1082325 0.3111521
vn -0.9385676 0.2349268 -0.2527851
v -0.0270421 -0.1082325 0.3134448
vn 0.3751633 -0.6145482 0.6939618
v 0.0350827 -0.1266710 0.3298592
vn -0.3311744 -0.6145474 0.7159994
v -0.0145436 -0.1266710 0.3314077
vn 0.9118921 -0.2800884 0.3000057
v 0.0466472 -0.1189871 0.3214754
vn -0.8913417 -0.2803502 0.3562496
v -0.0266082 -0.1189871 0.3237609
vn 0.4313144 0.5595924 -0.7076893
v 0.0345083 -0.1004393 0.3037277
vn -0.4746417 0.5608965 -0.6783144
v -0.0155995 -0.1004394 0.3052913
vn -0.2032001 0.6171273 -0.7601734
v -0.0045997 -0.0991621 0.3033658
vn -0.0243237 0.6258530 -0.7795617
v -0.0045997 -0.0991621 0.3033658
vn 0.0661729 0.6226351 -0.7797094
v 0.0234100 -0.0991621 0.3024918
vn 0.9183763 0.3066450 -0.2501074
v 0.0458905 -0.1312257 0.2865664
vn -0.9332923 0.3056767 -0.1884872
v -0.0280294 -0.1312257 0.2888727
vn 0.3639167 -0.7792686 0.5102010
v 0.0341303 -0.1562557 0.2945604
vn -0.3333907 -0.7797572 0.5299333
v -0.0157937 -0.1562557 0.2961181
vn 0.9082165 -0.3530652 0.2246950
v 0.0459041 -0.1458445 0.2906052
vn -0.8920305 -0.3550729 0.2796515
v -0.0277909 -0.1458445 0.2929045
vn 0.4222378 0.7015201 -0.5740947
v 0.0340332 -0.1206280 0.2836775
vn -0.4566988 0.7029700 -0.5452151
v -0.0163752 -0.1206280 0.2852502
vn -0.0194178 0.7825288 -0.6223117
v -0.0052849 -0.1187477 0.2840996
vn -0.1927982 0.7689238 -0.6095778
v -0.0052849 -0.1187477 0.2840996
vn 0.0695942 0.7788984 -0.6232768
v 0.0228928 -0.1187477 0.2832204
vn 0.9262022 0.3449443 -0.1521939
v 0.0454450 -0.1411961 0.2693698
vn -0.9346223 0.3426943 -0.0950885
v -0.0286569 -0.1411961 0.2716818
vn 0.3631893 -0.8696755 0.3343024
v 0.0335120 -0.1677412 0.2727670
vn -0.3427319 -0.8686966 0.3576326
v -0.0165351 -0.1677412 0.2743284
vn 0.9064484 -0.3957827 0.1473344
v 0.0453747 -0.1566922 0.2707302
vn -0.8944228 -0.3965667 0.2067432
v -0.0285017 -0.1566922 0.2730352
vn 0.4547296 0.8174987 -0.3534357
v 0.0336196 -0.1299514 0.2684284
vn -0.4720212 0.8173503 -0.3303552
v -0.0169130 -0.1299514 0.2700050
vn -0.1955630 0.9099484 -0.3657172
v -0.0057845 -0.1279146 0.2691979
vn -0.0116157 0.9280570 -0.3722570
v -0.0057845 -0.1279146 0.2691979
vn 0.0821523 0.9236506 -0.3743269
v 0.0224624 -0.1279146 0.2683165
vn -0.8665231 -0.4879032 0.1053012
v -0.0339020 -0.1700912 0.1953757
vn 0.8738456 -0.4837107 0.0491718
v 0.0459230 -0.1700912 0.1928850
vn -0.4945317 0.8599744 0.1260253
v -0.0183608 -0.1347953 0.2068022
vn 0.5063068 0.8557110 0.1068271
v 0.0311243 -0.1347953 0.2052582
vn 0.0042937 0.9904760 0.1376188
v -0.0065721 -0.1318278 0.2081676
vn -0.2493039 0.9590847 0.1341793
v -0.0065721 -0.1318278 0.2081676
vn 0.1413148 0.9809319 0.1334271
v 0.0194437 -0.1318278 0.2073559
vn -0.9400128 0.3230755 0.1095361
v -0.0338281 -0.1481447 0.2016508
vn 0.9446473 0.3225173 0.0602008
v 0.0462405 -0.1481447 0.1991526
vn -0.3248806 -0.9402732 0.1016806
v -0.0188225 -0.1834974 0.1920046
vn 0.3286347 -0.9412113 0.0782344
v 0.0306627 -0.1834974 0.1904607
vn -0.3223737 -0.9297271 0.1779967
v -0.0167201 -0.1799994 0.2310692
vn -0.0011371 0.9993353 -0.0364373
v -0.0055101 -0.1353882 0.2337595
vn -0.2255204 0.9735659 -0.0361935
v -0.0055101 -0.1353882 0.2337595
vn 0.9212961 0.3886019 -0.0142220
v 0.0450509 -0.1498090 0.2297267
vn 0.4584370 0.8869070 -0.0568454
v 0.0311234 -0.1379923 0.2319258
vn 0.1115538 0.9926146 -0.0476656
v 0.0199792 -0.1353882 0.2329641
vn -0.9211172 0.3861711 0.0491419
v -0.0307347 -0.1498090 0.2320914
vn -0.4592951 0.8880510 -0.0203359
v -0.0166971 -0.1379923 0.2334179
vn -0.8843194 -0.4475983 0.1327972
v -0.0306505 -0.1684598 0.2310929
vn 0.8922669 -0.4447924 0.0775855
v 0.0449045 -0.1684598 0.2287356
vn 0.3313913 -0.9299347 0.1593778
v 0.0309997 -0.1799994 0.2295802
vn -0.5445992 -0.6644274 0.5118086
v -0.0192635 0.0313971 0.2008630
vn 0.5836277 -0.6555368 0.4792182
v 0.0322102 0.0316437 0.1991235
vn -0.9960111 0.0392010 0.0801580
v -0.0332278 0.0644884 0.1781259
vn 0.9988707 0.0424757 0.0212862
v 0.0442683 0.0644812 0.1756869
vn -0.9466413 -0.2208185 0.2347539
v -0.0329452 0.0460753 0.1911851
vn 0.9603713 -0.2135620 0.1791043
v 0.0448357 0.0460798 0.1887200
vn 0.0195063 -0.8010753 0.5982457
v -0.0082726 0.0291228 0.2024440
vn -0.2403322 -0.7739476 0.5858716
v -0.0082726 0.0291228 0.2024440
vn 0.1559579 -0.7932537 0.5885795
v 0.0207688 0.0291815 0.2015210
# 163 vertices, 0 vertices normals


usemtl material_0
vt 0.6665550 0.0644020
vt 0.6727130 0.0609920
vt 0.6803220 0.0786840
f 11/1/11 7/2/7 18/3/18
vt 0.6738640 0.0809770
f 18/3/18 22/4/22 11/1/11
vt 0.7076290 0.0739340
vt 0.7053490 0.0474750
vt 0.7340540 0.0487170
f 14/5/14 3/6/3 4/7/4
vt 0.7304750 0.0740720
f 4/7/4 15/8/15 14/5/14
vt 0.6966420 0.2039910
vt 0.7043750 0.2048770
vt 0.7040260 0.2263550
f 100/9/100 104/10/104 115/11/115
vt 0.6961170 0.2232930
f 115/11/115 111/12/111 100/9/100
vt 0.7088260 0.0892950
f 25/13/25 14/5/14 15/8/15
vt 0.7288850 0.0891350
f 15/8/15 26/14/26 25/13/25
vt 0.7770600 0.0582700
vt 0.7695230 0.0676000
vt 0.7642750 0.0639250
f 162/15/162 9/16/9 8/17/8
vt 0.7728030 0.0536860
f 8/17/8 155/18/155 162/15/162
vt 0.6629030 0.2171630
vt 0.6647060 0.2014500
vt 0.6809540 0.2027330
f 119/19/119 109/20/109 110/21/110
vt 0.6797770 0.2194950
f 110/21/110 121/22/121 119/19/119
vt 0.6949520 0.0504330
f 5/23/5 3/6/3 14/5/14
vt 0.6992610 0.0746580
f 14/5/14 16/24/16 5/23/5
vt 0.6774690 0.0419740
vt 0.6833140 0.0557030
f 160/25/160 1/26/1 7/2/7
vt 0.6654500 0.0486870
f 7/2/7 156/27/156 160/25/160
f 1/26/1 5/23/5 16/24/16
vt 0.6901900 0.0763780
f 16/24/16 12/28/12 1/26/1
vt 0.7619920 0.0455080
f 159/29/159 155/18/155 8/17/8
vt 0.7548620 0.0580630
f 8/17/8 2/30/2 159/29/159
vt 0.7496970 0.2009520
vt 0.7524760 0.2194500
vt 0.7453040 0.2233870
f 101/31/101 112/32/112 116/33/116
vt 0.7422720 0.2027430
f 116/33/116 105/34/105 101/31/101
vt 0.7122340 0.2050870
vt 0.7346250 0.2039480
vt 0.7373730 0.2258350
f 102/35/102 103/36/103 114/37/114
vt 0.7124640 0.2277470
f 114/37/114 113/38/113 102/35/102
vt 0.7499710 0.0379910
f 157/39/157 159/29/159 2/30/2
vt 0.7441020 0.0521650
f 2/30/2 6/40/6 157/39/157
vt 0.6460840 0.0622680
vt 0.6595510 0.0528820
f 161/41/161 163/42/163 11/1/11
vt 0.6524770 0.0721630
f 11/1/11 10/43/10 161/41/161
vt 0.7561880 0.0796100
f 2/30/2 8/17/8 19/44/19
vt 0.7471370 0.0771090
f 19/44/19 13/45/13 2/30/2
vt 0.7620020 0.0819770
f 8/17/8 9/16/9 20/46/20
f 20/46/20 19/44/19 8/17/8
vt 0.7385680 0.0751100
f 4/7/4 6/40/6 17/47/17
f 17/47/17 15/8/15 4/7/4
f 6/40/6 2/30/2 13/45/13
f 13/45/13 17/47/17 6/40/6
f 10/43/10 11/1/11 22/4/22
vt 0.6590950 0.0864740
f 22/4/22 21/48/21 10/43/10
f 7/2/7 1/26/1 12/28/12
f 12/28/12 18/3/18 7/2/7
vt 0.7360730 0.0893850
f 15/8/15 17/47/17 28/49/28
f 28/49/28 26/14/26 15/8/15
vt 0.7015010 0.0895300
f 12/28/12 16/24/16 27/50/27
vt 0.6934860 0.0906230
f 27/50/27 23/51/23 12/28/12
vt 0.6841440 0.0921980
f 22/4/22 18/3/18 29/52/29
vt 0.6776910 0.0937980
f 29/52/29 33/53/33 22/4/22
f 16/24/16 14/5/14 25/13/25
f 25/13/25 27/50/27 16/24/16
vt 0.7582480 0.0933260
f 19/44/19 20/46/20 31/54/31
vt 0.7524180 0.0918980
f 31/54/31 30/55/30 19/44/19
vt 0.7105690 0.1229440
vt 0.7095010 0.1014720
vt 0.7285940 0.1011500
f 47/56/47 36/57/36 37/58/37
vt 0.7281890 0.1219330
f 37/58/37 48/59/48 47/56/47
f 21/48/21 22/4/22 33/53/33
vt 0.6626590 0.0976340
f 33/53/33 32/60/32 21/48/21
f 18/3/18 12/28/12 23/51/23
f 23/51/23 29/52/29 18/3/18
vt 0.7437270 0.0904450
f 17/47/17 13/45/13 24/61/24
f 24/61/24 28/49/28 17/47/17
f 13/45/13 19/44/19 30/55/30
f 30/55/30 24/61/24 13/45/13
vt 0.6948510 0.1020690
vt 0.6860120 0.1028020
f 23/51/23 34/62/34 40/63/40
f 40/63/40 29/52/29 23/51/23
vt 0.6797270 0.1038730
vt 0.6645660 0.1066670
f 33/53/33 44/64/44 43/65/43
f 43/65/43 32/60/32 33/53/33
vt 0.7023920 0.1015420
f 25/13/25 36/57/36 38/66/38
f 38/66/38 27/50/27 25/13/25
f 25/13/25 26/14/26 37/58/37
f 37/58/37 36/57/36 25/13/25
f 27/50/27 38/66/38 34/62/34
f 34/62/34 23/51/23 27/50/27
f 38/66/38 36/57/36 47/56/47
vt 0.7038930 0.1221370
f 47/56/47 49/67/49 38/66/38
vt 0.7425930 0.1012990
vt 0.7354120 0.1009980
f 24/61/24 35/68/35 39/69/39
f 39/69/39 28/49/28 24/61/24
vt 0.7508920 0.1017490
f 30/55/30 41/70/41 35/68/35
f 35/68/35 24/61/24 30/55/30
vt 0.7568160 0.1025140
vt 0.7556020 0.1174780
f 41/70/41 42/71/42 54/72/54
vt 0.7496050 0.1176630
f 54/72/54 52/73/52 41/70/41
f 28/49/28 39/69/39 37/58/37
f 37/58/37 26/14/26 28/49/28
f 29/52/29 40/63/40 44/64/44
f 44/64/44 33/53/33 29/52/29
f 34/62/34 38/66/38 49/67/49
vt 0.6968910 0.1207870
f 49/67/49 45/74/45 34/62/34
vt 0.7097810 0.1416570
f 58/75/58 47/56/47 48/59/48
vt 0.7302000 0.1407580
f 48/59/48 59/76/59 58/75/58
f 31/54/31 42/71/42 41/70/41
f 41/70/41 30/55/30 31/54/31
vt 0.6881960 0.1197080
f 44/64/44 40/63/40 51/77/51
vt 0.6818440 0.1199790
f 51/77/51 55/78/55 44/64/44
f 35/68/35 41/70/41 52/73/52
vt 0.7413980 0.1191830
f 52/73/52 46/79/46 35/68/35
vt 0.7346990 0.1208360
f 37/58/37 39/69/39 50/80/50
f 50/80/50 48/59/48 37/58/37
f 43/65/43 44/64/44 55/78/55
vt 0.6665210 0.1213590
f 55/78/55 53/81/53 43/65/43
f 40/63/40 34/62/34 45/74/45
f 45/74/45 51/77/51 40/63/40
f 39/69/39 35/68/35 46/79/46
f 46/79/46 50/80/50 39/69/39
f 156/27/156 7/2/7 11/1/11
f 11/1/11 163/42/163 156/27/156
vt 0.7027950 0.1411180
f 45/74/45 49/67/49 60/82/60
vt 0.6962190 0.1401390
f 60/82/60 56/83/56 45/74/45
f 49/67/49 47/56/47 58/75/58
f 58/75/58 60/82/60 49/67/49
vt 0.7571450 0.1357760
f 52/73/52 54/72/54 64/84/64
vt 0.7513000 0.1364460
f 64/84/64 63/85/63 52/73/52
vt 0.6821180 0.1392500
f 53/81/53 55/78/55 66/86/66
vt 0.6670920 0.1393930
f 66/86/66 65/87/65 53/81/53
f 51/77/51 45/74/45 56/83/56
vt 0.6881650 0.1393120
f 56/83/56 62/88/62 51/77/51
vt 0.7435090 0.1380210
f 50/80/50 46/79/46 57/89/57
vt 0.7371050 0.1395820
f 57/89/57 61/90/61 50/80/50
f 48/59/48 50/80/50 61/90/61
f 61/90/61 59/76/59 48/59/48
f 55/78/55 51/77/51 62/88/62
f 62/88/62 66/86/66 55/78/55
f 46/79/46 52/73/52 63/85/63
f 63/85/63 57/89/57 46/79/46
vt 0.7314850 0.1551190
f 58/75/58 59/76/59 70/91/70
vt 0.7099860 0.1561650
f 70/91/70 69/92/69 58/75/58
vt 0.7453450 0.1538040
vt 0.7386670 0.1545150
f 57/89/57 68/93/68 72/94/72
f 72/94/72 61/90/61 57/89/57
vt 0.6959690 0.1562130
vt 0.6879170 0.1561850
f 56/83/56 67/95/67 73/96/73
f 73/96/73 62/88/62 56/83/56
vt 0.6819140 0.1562570
vt 0.6667750 0.1560590
f 66/86/66 77/97/77 75/98/75
f 75/98/75 65/87/65 66/86/66
f 61/90/61 72/94/72 70/91/70
f 70/91/70 59/76/59 61/90/61
vt 0.7533170 0.1529720
f 63/85/63 74/99/74 68/93/68
f 68/93/68 57/89/57 63/85/63
vt 0.7027270 0.1562630
f 60/82/60 71/100/71 67/95/67
f 67/95/67 56/83/56 60/82/60
vt 0.6818850 0.1714590
vt 0.6664240 0.1710480
f 77/97/77 88/101/88 86/102/86
f 86/102/86 75/98/75 77/97/77
f 58/75/58 69/92/69 71/100/71
f 71/100/71 60/82/60 58/75/58
vt 0.7592980 0.1524170
f 64/84/64 76/103/76 74/99/74
f 74/99/74 63/85/63 64/84/64
vt 0.7107890 0.1712010
vt 0.7034180 0.1714050
f 69/92/69 80/104/80 82/105/82
f 82/105/82 71/100/71 69/92/69
vt 0.6964640 0.1714110
vt 0.6880800 0.1714360
f 67/95/67 78/106/78 84/107/84
f 84/107/84 73/96/73 67/95/67
vt 0.7320760 0.1701570
f 70/91/70 81/108/81 80/104/80
f 80/104/80 69/92/69 70/91/70
vt 0.7463470 0.1689060
vt 0.7394460 0.1696090
f 68/93/68 79/109/79 83/110/83
f 83/110/83 72/94/72 68/93/68
f 62/88/62 73/96/73 77/97/77
f 77/97/77 66/86/66 62/88/62
vt 0.6815930 0.1899480
vt 0.6655380 0.1891230
f 88/101/88 99/111/99 97/112/97
f 97/112/97 86/102/86 88/101/88
vt 0.7546480 0.1680900
f 74/99/74 85/113/85 79/109/79
f 79/109/79 68/93/68 74/99/74
f 71/100/71 82/105/82 78/106/78
f 78/106/78 67/95/67 71/100/71
f 72/94/72 83/110/83 81/108/81
f 81/108/81 70/91/70 72/94/72
vt 0.7334860 0.1883420
f 80/104/80 81/108/81 92/114/92
vt 0.7114270 0.1893830
f 92/114/92 91/115/91 80/104/80
f 73/96/73 84/107/84 88/101/88
f 88/101/88 77/97/77 73/96/73
f 92/114/92 81/108/81 83/110/83
vt 0.7408420 0.1878100
f 83/110/83 94/116/94 92/114/92
vt 0.7479910 0.1871460
f 90/117/90 79/109/79 85/113/85
vt 0.7565600 0.1863410
f 85/113/85 96/118/96 90/117/90
vt 0.7607760 0.1675140
vt 0.7628990 0.1856230
f 87/119/87 98/120/98 96/118/96
f 96/118/96 85/113/85 87/119/87
f 76/103/76 87/119/87 85/113/85
f 85/113/85 74/99/74 76/103/76
f 91/115/91 92/114/92 103/36/103
f 103/36/103 102/35/102 91/115/91
vt 0.7040200 0.1897100
f 80/104/80 91/115/91 93/121/93
f 93/121/93 82/105/82 80/104/80
f 109/20/109 97/112/97 99/111/99
f 99/111/99 110/21/110 109/20/109
vt 0.6967700 0.1898630
f 82/105/82 93/121/93 89/122/89
f 89/122/89 78/106/78 82/105/82
f 90/117/90 101/31/101 105/34/105
f 105/34/105 94/116/94 90/117/90
f 91/115/91 102/35/102 104/10/104
f 104/10/104 93/121/93 91/115/91
f 84/107/84 78/106/78 89/122/89
vt 0.6880530 0.1900010
f 89/122/89 95/123/95 84/107/84
vt 0.7648330 0.1980370
vt 0.7675920 0.2139640
vt 0.7610730 0.2156540
f 108/124/108 120/125/120 118/126/118
vt 0.7584020 0.1990810
f 118/126/118 107/127/107 108/124/108
f 79/109/79 90/117/90 94/116/94
f 94/116/94 83/110/83 79/109/79
f 84/107/84 95/123/95 99/111/99
f 99/111/99 88/101/88 84/107/84
f 95/123/95 89/122/89 100/9/100
vt 0.6875880 0.2031060
f 100/9/100 106/128/106 95/123/95
f 100/9/100 89/122/89 93/121/93
f 93/121/93 104/10/104 100/9/100
f 95/123/95 106/128/106 110/21/110
f 110/21/110 99/111/99 95/123/95
f 96/118/96 107/127/107 101/31/101
f 101/31/101 90/117/90 96/118/96
f 98/120/98 108/124/108 107/127/107
f 107/127/107 96/118/96 98/120/98
f 92/114/92 94/116/94 105/34/105
f 105/34/105 103/36/103 92/114/92
vt 0.6781910 0.2304620
f 119/19/119 121/22/121 132/129/132
vt 0.6613000 0.2272300
f 132/129/132 131/130/131 119/19/119
f 106/128/106 100/9/100 111/12/111
vt 0.6867370 0.2204780
f 111/12/111 117/131/117 106/128/106
vt 0.7038290 0.2388590
vt 0.6952260 0.2353780
f 115/11/115 126/132/126 122/133/122
f 122/133/122 111/12/111 115/11/115
f 107/127/107 118/126/118 112/32/112
f 112/32/112 101/31/101 107/127/107
f 102/35/102 113/38/113 115/11/115
f 115/11/115 104/10/104 102/35/102
f 106/128/106 117/131/117 121/22/121
f 121/22/121 110/21/110 106/128/106
vt 0.7636370 0.2263160
vt 0.7548770 0.2308260
f 118/126/118 129/134/129 123/135/123
f 123/135/123 112/32/112 118/126/118
vt 0.7128150 0.2404440
f 113/38/113 124/136/124 126/132/126
f 126/132/126 115/11/115 113/38/113
f 103/36/103 105/34/105 116/33/116
f 116/33/116 114/37/114 103/36/103
vt 0.7701660 0.2240670
f 120/125/120 130/137/130 129/134/129
f 129/134/129 118/126/118 120/125/120
vt 0.7472030 0.2353670
vt 0.7387720 0.2382410
f 116/33/116 127/138/127 125/139/125
f 125/139/125 114/37/114 116/33/116
vt 0.6854050 0.2319390
f 111/12/111 122/133/122 128/140/128
f 128/140/128 117/131/117 111/12/111
vt 0.7726600 0.2736020
vt 0.7593520 0.2824280
vt 0.7527050 0.2603240
f 140/141/140 133/142/133 152/143/152
vt 0.7631190 0.2547670
f 152/143/152 150/144/150 140/141/140
vt 0.7138200 0.2659520
vt 0.7026130 0.2650830
f 124/136/124 154/145/154 153/146/153
f 153/146/153 126/132/126 124/136/124
f 112/32/112 123/135/123 127/138/127
f 127/138/127 116/33/116 112/32/112
f 114/37/114 125/139/125 124/136/124
f 124/136/124 113/38/113 114/37/114
f 117/131/117 128/140/128 132/129/132
f 132/129/132 121/22/121 117/131/117
vt 0.6903030 0.0358620
f 158/147/158 5/23/5 1/26/1
f 1/26/1 160/25/160 158/147/158
vt 0.6854940 0.2831170
vt 0.6718060 0.2750250
vt 0.6790410 0.2566600
f 141/148/141 136/149/136 148/150/148
vt 0.6908160 0.2615960
f 148/150/148 147/151/147 141/148/141
vt 0.7009350 0.2887180
f 134/152/134 141/148/141 147/151/147
f 147/151/147 153/146/153 134/152/134
vt 0.7144320 0.2907800
f 143/153/143 134/152/134 153/146/153
f 153/146/153 154/145/154 143/153/143
vt 0.7880560 0.2570580
vt 0.7829590 0.2629950
vt 0.7729590 0.2481130
f 138/154/138 135/155/135 151/156/151
vt 0.7790210 0.2442470
f 151/156/151 146/157/146 138/154/138
f 135/155/135 140/141/140 150/144/150
f 150/144/150 151/156/151 135/155/135
vt 0.7421000 0.2633690
vt 0.7466480 0.2871980
f 154/145/154 144/158/144 142/159/142
f 142/159/142 143/153/143 154/145/154
vt 0.6642600 0.2702440
vt 0.6500460 0.2614980
vt 0.6563800 0.2478570
f 139/160/139 137/161/137 145/162/145
vt 0.6717660 0.2536900
f 145/162/145 149/163/149 139/160/139
f 133/142/133 142/159/142 144/158/144
f 144/158/144 152/143/152 133/142/133
f 126/132/126 153/146/153 147/151/147
f 147/151/147 122/133/122 126/132/126
f 154/145/154 124/136/124 125/139/125
f 125/139/125 144/158/144 154/145/154
f 128/140/128 148/150/148 149/163/149
f 149/163/149 132/129/132 128/140/128
f 130/137/130 146/157/146 151/156/151
f 151/156/151 129/134/129 130/137/130
f 150/144/150 152/143/152 127/138/127
f 127/138/127 123/135/123 150/144/150
f 132/129/132 149/163/149 145/162/145
f 145/162/145 131/130/131 132/129/132
f 152/143/152 144/158/144 125/139/125
f 125/139/125 127/138/127 152/143/152
f 151/156/151 150/144/150 123/135/123
f 123/135/123 129/134/129 151/156/151
f 122/133/122 147/151/147 148/150/148
f 148/150/148 128/140/128 122/133/122
f 136/149/136 139/160/139 149/163/149
f 149/163/149 148/150/148 136/149/136
# 274 faces, 163 coords texture

# End of File
